<svg width="19" height="33" viewBox="0 0 19 33" fill="none" xmlns="http://www.w3.org/2000/svg">
  <g clip-path="url(#clip0_1_413)">
    <path fill-rule="evenodd" clip-rule="evenodd"
      d="M3 3.5H15.023C15.8186 3.5 16.5817 3.81607 17.1443 4.37868C17.7069 4.94129 18.023 5.70435 18.023 6.5V18.5C18.023 19.2956 17.7069 20.0587 17.1443 20.6213C16.5817 21.1839 15.8186 21.5 15.023 21.5H3C2.20435 21.5 1.44129 21.1839 0.87868 20.6213C0.31607 20.0587 0 19.2956 0 18.5L0 6.5C0 5.70435 0.31607 4.94129 0.87868 4.37868C1.44129 3.81607 2.20435 3.5 3 3.5ZM13.13 7.283C13.1303 7.58163 13.2492 7.86793 13.4605 8.07891C13.6719 8.28989 13.9584 8.40827 14.257 8.408C14.5556 8.40773 14.8419 8.28885 15.0529 8.0775C15.2639 7.86614 15.3823 7.57963 15.382 7.281C15.3817 6.98237 15.2628 6.69607 15.0515 6.48509C14.8401 6.27411 14.5536 6.15573 14.255 6.156C13.9564 6.15627 13.6701 6.27515 13.4591 6.4865C13.2481 6.69786 13.1297 6.98437 13.13 7.283ZM9.023 17C9.61443 17.0005 10.2002 16.8845 10.7468 16.6587C11.2934 16.4328 11.7901 16.1015 12.2086 15.6836C12.6272 15.2657 12.9593 14.7695 13.186 14.2232C13.4127 13.677 13.5296 13.0914 13.53 12.5C13.53 10.015 11.513 8 9.024 8C8.43266 7.99961 7.84703 8.11569 7.30055 8.34162C6.75407 8.56756 6.25744 8.89891 5.83902 9.31678C5.4206 9.73464 5.08858 10.2308 4.86192 10.777C4.63526 11.3232 4.51839 11.9087 4.518 12.5C4.518 14.985 6.535 17 9.023 17ZM9.012 15.521C8.61777 15.5213 8.22735 15.4439 7.86303 15.2933C7.49871 15.1426 7.16763 14.9217 6.88868 14.6431C6.60973 14.3646 6.38839 14.0338 6.23728 13.6697C6.08617 13.3055 6.00826 12.9152 6.008 12.521C6.008 10.864 7.353 9.521 9.012 9.521C9.80801 9.52073 10.5715 9.83662 11.1347 10.3992C11.6978 10.9618 12.0145 11.725 12.015 12.521C12.015 14.178 10.671 15.521 9.012 15.521Z"
      fill="#E4009C" />
  </g>
  <defs>
    <clipPath id="clip0_1_413">
      <rect width="19" height="18" fill="white" transform="translate(0 3.5)" />
    </clipPath>
  </defs>
</svg>